<svg width="64" height="64" viewBox="0 0 64 64" fill="none" xmlns="http://www.w3.org/2000/svg">
  <circle cx="32" cy="32" r="28" fill="#111827"/>
  <path d="M44 28c0-6.6-5.4-12-12-12-2 0-4 .5-5.7 1.4-2.1-1.9-5.6-1.6-7.6.5-1.5 1.5-2 3.6-1.6 5.5C14.1 24.5 12 27 12 30c0 3.3 2.7 6 6 6h2.2c-.1.5-.2 1-.2 1.5 0 3.6 2.9 6.5 6.5 6.5 1 0 2-.2 2.8-.6 1 1.6 2.8 2.6 4.7 2.6 3.1 0 5.7-2.5 5.8-5.6 2.4-1.1 4.2-3.5 4.2-6.4 0-1.7-.6-3.3-1.6-4.5.1-.3.2-.6.2-.9Z" stroke="#22C55E" stroke-width="3" stroke-linejoin="round"/>
</svg>
