<svg width="64" height="64" viewBox="0 0 64 64" fill="none" xmlns="http://www.w3.org/2000/svg">
  <path d="M26 12c0-2.2-1.8-4-4-4s-4 1.8-4 4v10c0 2.2 1.8 4 4 4h4V12Z" fill="#36C5F0"/>
  <path d="M28 26h-4c-2.2 0-4 1.8-4 4s1.8 4 4 4h4v-8Z" fill="#2EB67D"/>
  <path d="M36 38c0 2.2 1.8 4 4 4s4-1.8 4-4V28c0-2.2-1.8-4-4-4h-4v14Z" fill="#ECB22E"/>
  <path d="M34 24h4c2.2 0 4-1.8 4-4s-1.8-4-4-4h-4v8Z" fill="#E01E5A"/>
  <path d="M24 36c0 2.2 1.8 4 4 4h8c2.2 0 4-1.8 4-4v-8c0-2.2-1.8-4-4-4h-8c-2.2 0-4 1.8-4 4v8Z" fill="#111827" fill-opacity="0.08"/>
</svg>
